<svg xmlns="http://www.w3.org/2000/svg" xmlns:xlink="http://www.w3.org/1999/xlink" width="600" zoomAndPan="magnify" viewBox="0 0 450 187.499995" height="250" preserveAspectRatio="xMidYMid meet" version="1.0"><defs><g/><clipPath id="d61caf56d3"><path d="M 0.597656 0 L 449.402344 0 L 449.402344 187 L 0.597656 187 Z M 0.597656 0 " clip-rule="nonzero"/></clipPath><clipPath id="b3d7c48fa1"><path d="M 46 0 L 386 0 L 386 187 L 46 187 Z M 46 0 " clip-rule="nonzero"/></clipPath><clipPath id="850f457bca"><path d="M 0.597656 78.332031 L 449.402344 78.332031 L 449.402344 121.074219 L 0.597656 121.074219 Z M 0.597656 78.332031 " clip-rule="nonzero"/></clipPath></defs><g clip-path="url(#d61caf56d3)"><path fill="#ffffff" d="M 0.597656 0 L 449.402344 0 L 449.402344 194.480469 L 0.597656 194.480469 Z M 0.597656 0 " fill-opacity="1" fill-rule="nonzero"/><path fill="#ffffff" d="M 0.597656 0 L 449.402344 0 L 449.402344 187 L 0.597656 187 Z M 0.597656 0 " fill-opacity="1" fill-rule="nonzero"/><path fill="#a854fc" d="M 0.597656 0 L 449.402344 0 L 449.402344 187 L 0.597656 187 Z M 0.597656 0 " fill-opacity="1" fill-rule="nonzero"/></g><g fill="#ffffff" fill-opacity="1"><g transform="translate(80.737773, 156.711127)"><g><path d="M 113.808594 -14.566406 C 108.371094 -9.320312 101.765625 -4.46875 93.027344 -2.523438 C 60.59375 6.410156 32.238281 -24.277344 24.46875 -53.992188 C 16.894531 -83.511719 25.636719 -124.292969 58.652344 -133.421875 C 99.824219 -144.882812 120.605469 -100.988281 121.574219 -98.660156 L 121.574219 -118.855469 C 121.574219 -118.855469 101.183594 -146.628906 58.457031 -134.78125 C 21.363281 -125.070312 -0.582031 -87.007812 9.320312 -50.105469 C 19.421875 -13.207031 57.292969 9.128906 93.414062 -1.554688 C 107.980469 -5.242188 120.214844 -13.207031 128.566406 -23.886719 L 128.566406 -64.476562 L 54.378906 -64.476562 L 54.378906 -49.523438 C 68.167969 -62.148438 90.113281 -62.925781 113.808594 -62.925781 Z M 113.808594 -14.566406 "/></g></g></g><g fill="#ffffff" fill-opacity="1"><g transform="translate(216.072288, 156.711127)"><g><path d="M 58.261719 -133.421875 C 100.601562 -145.269531 121.382812 -98.660156 121.382812 -98.660156 L 121.382812 -118.855469 C 121.382812 -118.855469 101.183594 -146.628906 57.875 -134.78125 C 21.167969 -125.070312 -0.386719 -87.007812 9.128906 -50.105469 C 19.617188 -13.207031 56.515625 9.128906 93.609375 -1.554688 C 107.59375 -5.242188 120.023438 -13.207031 128.566406 -23.886719 L 128.566406 -48.550781 C 125.847656 -27.578125 114.777344 -8.351562 93.222656 -2.523438 C 60.207031 6.410156 32.238281 -24.277344 24.082031 -53.992188 C 16.703125 -83.511719 25.054688 -124.292969 58.261719 -133.421875 Z M 58.261719 -133.421875 "/></g></g></g><g clip-path="url(#b3d7c48fa1)"><path stroke-linecap="butt" transform="matrix(4.635098, 0, 0, 4.635098, 80.755517, -19.032581)" fill="none" stroke-linejoin="miter" d="M 24.55078 34.859146 C 23.384407 35.985066 21.952567 37.038509 20.069853 37.458201 C 13.073305 39.381367 6.955749 32.762372 5.278667 26.34901 C 3.642038 19.986213 5.534022 11.188697 12.653613 9.214123 C 21.532875 6.738953 26.023915 16.211515 26.228704 16.712111 L 26.228704 12.35507 C 26.228704 12.35507 21.829525 6.370669 12.613161 8.917474 C 4.613734 11.014247 -0.122547 19.228576 2.015522 27.187551 C 4.194042 35.145682 12.356963 39.974666 20.152443 37.662148 C 23.292547 36.864902 25.932054 35.145682 27.742291 32.844119 L 27.742291 24.087899 L 11.733325 24.087899 L 11.733325 27.320706 C 14.709934 24.589338 19.446215 24.425844 24.55078 24.425844 Z M 41.769942 9.214123 C 50.904559 6.657206 55.385485 16.712111 55.385485 16.712111 L 55.385485 12.35507 C 55.385485 12.35507 51.027601 6.370669 41.688194 8.917474 C 33.760402 11.014247 29.115981 19.228576 31.172302 27.187551 C 33.43257 35.145682 41.391545 39.974666 49.390971 37.662148 C 52.408876 36.864902 55.088835 35.145682 56.940367 32.844119 L 56.940367 27.524652 C 56.347068 32.046031 53.963758 36.199968 49.309224 37.458201 C 42.189633 39.381367 36.153825 32.762372 34.394153 26.34901 C 32.798819 19.986213 34.598943 11.188697 41.769942 9.214123 Z M 41.769942 9.214123 " stroke="#ffffff" stroke-width="1.571374" stroke-opacity="1" stroke-miterlimit="4"/></g><g clip-path="url(#850f457bca)"><path fill="#a854fc" d="M -28.214844 78.332031 L 469.675781 78.332031 L 469.675781 121.28125 L -28.214844 121.28125 Z M -28.214844 78.332031 " fill-opacity="1" fill-rule="nonzero"/></g><g fill="#000000" fill-opacity="1"><g transform="translate(115.740225, 118.021673)"><g><path d="M 34.25 0 L 46.046875 -28.054688 C 47.789062 -32.023438 46.863281 -36.316406 42.675781 -37.949219 C 38.273438 -39.6875 33.761719 -37.132812 31.640625 -31.804688 L 28.324219 -24.140625 L 22.398438 -38.4375 L 17.832031 -38.4375 L 26.042969 -18.703125 L 20.496094 -5.4375 L 6.632812 -38.4375 L 1.902344 -38.4375 L 18.160156 0 L 18.648438 0 L 26.203125 -18.210938 L 33.871094 0 Z M 28.652344 -23.539062 L 32.023438 -31.804688 C 33.871094 -36.097656 37.839844 -39.359375 42.570312 -37.621094 C 46.59375 -36.042969 47.296875 -31.804688 45.777344 -28.054688 L 36.207031 -5.4375 Z M 28.652344 -23.539062 "/></g></g></g><g fill="#000000" fill-opacity="1"><g transform="translate(164.557004, 118.021673)"><g><path d="M 28.324219 0 L 32.890625 0 L 16.636719 -38.382812 L 16.253906 -38.382812 C 12.125 -31.371094 7.230469 -21.476562 4.347656 -13.699219 C 3.042969 -10.222656 2.285156 -7.175781 2.011719 -4.785156 C 1.738281 -2.335938 2.335938 -0.707031 3.804688 -0.0546875 C 4.1875 0.273438 4.347656 0.273438 4.675781 0.328125 C 7.121094 0.433594 8.046875 -1.578125 9.078125 -4.296875 C 10.820312 -8.265625 12.9375 -13.863281 22.179688 -14.734375 Z M 22.019531 -15.113281 C 12.613281 -14.191406 10.4375 -8.480469 8.644531 -4.402344 C 7.773438 -1.902344 6.90625 0 4.730469 -0.164062 C 4.457031 -0.328125 4.296875 -0.328125 3.96875 -0.433594 C 2.664062 -0.871094 2.285156 -2.554688 2.390625 -4.785156 C 2.664062 -7.121094 3.425781 -10.113281 4.730469 -13.589844 C 7.011719 -19.898438 10.710938 -27.292969 14.027344 -33.707031 Z M 22.019531 -15.113281 "/></g></g></g><g fill="#000000" fill-opacity="1"><g transform="translate(199.348468, 118.021673)"><g><path d="M 24.898438 -8.046875 C 22.886719 -2.554688 20.117188 -0.433594 15.441406 -0.433594 L 6.253906 -0.433594 L 6.253906 -38.382812 L 1.902344 -38.382812 L 1.902344 0 L 23.59375 0 Z M 24.898438 -8.046875 "/></g></g></g><g fill="#000000" fill-opacity="1"><g transform="translate(226.148769, 118.021673)"><g><path d="M 24.898438 -8.046875 C 22.886719 -2.554688 20.117188 -0.433594 15.441406 -0.433594 L 6.253906 -0.433594 L 6.253906 -38.382812 L 1.902344 -38.382812 L 1.902344 0 L 23.59375 0 Z M 24.898438 -8.046875 "/></g></g></g><g fill="#000000" fill-opacity="1"><g transform="translate(252.949069, 118.021673)"><g><path d="M 6.089844 -25.605469 C 7.664062 -19.191406 14.191406 -19.515625 17.34375 -15.929688 L 17.34375 -20.222656 C 9.894531 -20.222656 6.089844 -21.746094 6.089844 -29.195312 L 6.089844 -38.003906 L 10.546875 -38.003906 C 17.179688 -38.003906 20.007812 -37.730469 23.867188 -34.035156 L 23.867188 -38.382812 L 1.902344 -38.382812 L 1.902344 0 L 23.539062 0 L 24.792969 -8.046875 C 22.832031 -2.554688 20.007812 -0.433594 15.277344 -0.433594 L 6.089844 -0.433594 Z M 6.089844 -25.605469 "/></g></g></g><g fill="#000000" fill-opacity="1"><g transform="translate(279.640641, 118.021673)"><g><path d="M 14.84375 0 L 19.027344 0 L 19.027344 -38.003906 C 24.792969 -37.949219 28.269531 -37.621094 31.96875 -34.195312 L 31.96875 -38.4375 L 1.902344 -38.4375 L 1.902344 -34.195312 C 5.492188 -37.621094 9.023438 -37.949219 14.84375 -38.003906 Z M 14.84375 0 "/></g></g></g><path stroke-linecap="butt" transform="matrix(0.743726, 0, 0, 0.743726, 115.728605, 67.448293)" fill="none" stroke-linejoin="miter" d="M 46.059654 68.002373 L 61.926759 30.270071 C 64.264019 24.933766 63.029736 19.172027 57.394051 16.976578 C 51.485248 14.639319 45.418877 18.063798 42.561643 25.238398 L 38.102466 35.538097 L 30.140026 16.314792 L 23.984367 16.314792 L 35.029889 42.854508 L 27.571667 60.680709 L 8.936616 16.314792 L 2.565614 16.314792 L 24.43081 68.002373 L 25.092596 68.002373 L 35.245232 43.516294 L 45.560689 68.002373 Z M 38.548909 36.341694 L 43.081618 25.238398 C 45.560689 19.455649 50.896994 15.085761 57.25224 17.423021 C 62.656824 19.529181 63.623242 25.238398 61.569605 30.270071 L 48.701545 60.680709 Z M 103.740073 68.002373 L 109.879976 68.002373 L 88.01478 16.388324 L 87.515814 16.388324 C 81.948409 25.826652 75.37782 39.125397 71.506898 49.582665 C 69.742135 54.257184 68.723195 58.34345 68.366041 61.573595 C 67.99313 64.861516 68.796727 67.051712 70.776832 67.928841 C 71.275798 68.359527 71.506898 68.359527 71.937584 68.443563 C 75.236009 68.590627 76.470292 65.875204 77.862143 62.219624 C 80.199403 56.883319 83.056638 49.367322 95.473002 48.190813 Z M 95.262911 47.670839 C 82.610195 48.920879 79.679429 56.594444 77.273889 62.072561 C 76.113138 65.44977 74.93663 68.002373 72.005863 67.787029 C 71.648709 67.55593 71.438618 67.55593 70.992176 67.408866 C 69.24317 66.820612 68.723195 64.556884 68.865007 61.573595 C 69.24317 58.416981 70.256858 54.398996 72.005863 49.724476 C 75.078441 41.247314 80.057592 31.304768 84.516768 22.670038 Z M 145.915794 57.182698 C 143.200371 64.556884 139.487017 67.408866 133.189546 67.408866 L 120.841461 67.408866 L 120.841461 16.388324 L 114.985181 16.388324 L 114.985181 68.002373 L 144.166789 68.002373 Z M 181.951612 57.182698 C 179.236189 64.556884 175.522835 67.408866 169.225364 67.408866 L 156.872027 67.408866 L 156.872027 16.388324 L 151.021 16.388324 L 151.021 68.002373 L 180.202607 68.002373 Z M 192.697755 33.573749 C 194.819672 42.192722 203.580457 41.767288 207.829542 46.583619 L 207.829542 40.800871 C 197.797708 40.800871 192.697755 38.768243 192.697755 28.736409 L 192.697755 16.903046 L 198.690594 16.903046 C 207.598442 16.903046 211.401085 17.260201 216.590327 22.239352 L 216.590327 16.388324 L 187.056818 16.388324 L 187.056818 68.002373 L 216.164893 68.002373 L 217.840367 57.182698 C 215.198476 64.556884 211.401085 67.408866 205.04584 67.408866 L 192.697755 67.408866 Z M 240.34634 68.002373 L 245.987277 68.002373 L 245.987277 16.903046 C 253.729122 16.976578 258.408894 17.423021 263.367036 22.029261 L 263.367036 16.314792 L 222.945573 16.314792 L 222.945573 22.029261 C 227.782913 17.423021 232.530964 16.976578 240.34634 16.903046 Z M 240.34634 68.002373 " stroke="#000000" stroke-width="2.741303" stroke-opacity="1" stroke-miterlimit="4"/></svg>